<?xml version="1.0" encoding="UTF-8" standalone="no"?><svg width="605" height="305" viewBox="0 0 605 305" xmlns="http://www.w3.org/2000/svg">
<defs>
<marker id="startarrow" markerWidth="10" markerHeight="7"
refX="0" refY="3.5" orient="auto">
<polygon points="10 0, 10 7, 0 3.5" />
</marker>
<marker id="endarrow" markerWidth="10" markerHeight="7"
refX="10" refY="3.5" orient="auto">
<polygon points="0 0, 10 3.5, 0 7" />
</marker>

</defs><style>
.a15 { font-size: 15px; font-family: Times, serif; }
</style>
<ellipse cx="100" cy="200" rx="50" ry="50" fill="#add8e6ff" 
            stroke-width="2" stroke="#000000ff"/>
<text dominant-baseline="middle" text-anchor="middle" 
            x="100" y="185" class="a15"><tspan x = "100" dy="1.0em">Start</tspan></text><ellipse cx="300" cy="200" rx="50" ry="50" fill="#add8e6ff" 
            stroke-width="2" stroke="#000000ff"/>
<text dominant-baseline="middle" text-anchor="middle" 
            x="300" y="185" class="a15"><tspan x = "300" dy="1.0em">q1</tspan></text><ellipse cx="500" cy="200" rx="50" ry="50" fill="#add8e6ff" 
            stroke-width="2" stroke="#000000ff"/>
<ellipse cx="500" cy="200" rx="42.5" ry="42.5" fill="#add8e6ff" 
            stroke-width="2" stroke="#000000ff"/>
<text dominant-baseline="middle" text-anchor="middle" 
            x="500" y="185" class="a15"><tspan x = "500" dy="1.0em">Accept</tspan></text><path id="arrow0" d="M 150 200 C 180 200, 220 200, 250 200 " stroke="#000000ff" stroke-width="2"   marker-end="url(#endarrow)" 
            fill="transparent" />
<text><textPath href="#arrow0" startOffset="50%" text-anchor="middle" class="a15">a</textPath></text><path id="arrow1" d="M 350 200 C 380 200, 420 200, 450 200 " stroke="#000000ff" stroke-width="2"   marker-end="url(#endarrow)" 
            fill="transparent" />
<text><textPath href="#arrow1" startOffset="50%" text-anchor="middle" class="a15">a</textPath></text><path id="arrow2" d="M 450 200 C 420 200, 380 200, 350 200 " stroke="#000000ff" stroke-width="2"   marker-end="url(#endarrow)" 
            fill="transparent" />
<text><textPath href="#arrow2" startOffset="50%" text-anchor="middle" class="a15">a</textPath></text></svg>